{"title":"R Kelly  - When A Woman Loves [KingPinVideos]","uid":5815946,"size":112092931,"categoryP":"video","categoryS":"music_videos","magnet":"?xt=urn:btih:77af6113202b49db13c26ceba67c5bbae8795f0a&amp;dn=R+Kelly++-+When+A+Woman+Loves+%5BKingPinVideos%5D&amp;tr=udp%3A%2F%2Ftracker.openbittorrent.com%3A80&amp;tr=udp%3A%2F%2Fopen.demonii.com%3A1337&amp;tr=udp%3A%2F%2Ftracker.coppersurfer.tk%3A6969&amp;tr=udp%3A%2F%2Fexodus.desync.com%3A6969","seeders":0,"leechers":0,"uploader":"KingPinMan","files":5,"time":1283823380,"description":"[img]http://a.imageshack.us/img834/108/rkellywoman2.png[/img]\n\n[img]http://a.imageshack.us/img525/4146/rkellywoman.png[/img]\n\n[code]General\nComplete name                    : R Kelly  - When A Woman Loves [KingPinVideos].mpg\nFormat                           : MPEG-PS\nFile size                        : 107 MiB\nDuration                         : 5mn 13s\nOverall bit rate                 : 2 856 Kbps\nWriting library                  : encoded by TMPGEnc 4.0 XPress Version. 4.7.4.299\n\nVideo\nID                               : 224 (0xE0)\nFormat                           : MPEG Video\nFormat version                   : Version 1\nFormat settings, BVOP            : Yes\nFormat settings, Matrix          : Default\nDuration                         : 5mn 13s\nBit rate mode                    : Constant\nBit rate                         : 2 615 Kbps\nNominal bit rate                 : 2 700 Kbps\nWidth                            : 384 pixels\nHeight                           : 208 pixels\nDisplay aspect ratio             : 16:9\nFrame rate                       : 29.970 fps\nResolution                       : 8 bits\nScan type                        : Progressive\nBits/(Pixel*Frame)               : 1.092\nStream size                      : 97.9 MiB (92%)\nWriting library                  : TMPGEnc XPress 4.7.4.299\n\nAudio\nID                               : 192 (0xC0)\nFormat                           : MPEG Audio\nFormat version                   : Version 1\nFormat profile                   : Layer 2\nDuration                         : 5mn 13s\nBit rate mode                    : Constant\nBit rate                         : 128 Kbps\nChannel(s)                       : 2 channels\nSampling rate                    : 48.0 KHz\nStream size                      : 4.79 MiB (4%)[/code]","torrent":{"xt":"urn:btih:77af6113202b49db13c26ceba67c5bbae8795f0a","amp;dn":"R+Kelly++-+When+A+Woman+Loves+%5BKingPinVideos%5D","amp;tr":["udp%3A%2F%2Ftracker.openbittorrent.com%3A80","udp%3A%2F%2Fopen.demonii.com%3A1337","udp%3A%2F%2Ftracker.coppersurfer.tk%3A6969","udp%3A%2F%2Fexodus.desync.com%3A6969"],"infoHash":"77af6113202b49db13c26ceba67c5bbae8795f0a","infoHashBuffer":{"type":"Buffer","data":[119,175,97,19,32,43,73,219,19,194,108,235,166,124,91,186,232,121,95,10]},"announce":[],"urlList":[]}}